# xmcd
#
# Track frame offsets:
#	150
#	31361
#	45642
#	58722
#	80933
#	100842
#	127025
#	155782
#	184788
#
# Disc length: 2679 seconds
#
# Revision: 1
# Processed by: cddbd v1.5.2PL0 Copyright (c) Steve Scherf et al.
# Submitted via: EZCDAudioConverter 1.3.4.1
#
DISCID=7d0a7509
DTITLE=Songs: Ohia - Magnolia Electric Co 2/2
DYEAR=2003
DGENRE=
TTITLE0=Farewell Transmission [Demo]
TTITLE1=I've Been Riding With The Ghost [Demo]
TTITLE2=Just Be Simple [Demo]
TTITLE3=The Old Black Hen [Demo]
TTITLE4=Peoria Lunch Box Blues [Demo]
TTITLE5=John Henry Split My Heart [Demo]
TTITLE6=Hold On Magnolia [Demo]
TTITLE7=The Big Game Is Every Night [Demo]
TTITLE8=Whip-Poor-Will [Demo]
EXTD=
EXTT0=
EXTT1=
EXTT2=
EXTT3=
EXTT4=
EXTT5=
EXTT6=
EXTT7=
EXTT8=
PLAYORDER=
